<svg
  t="1668575511223"
  class="icon"
  viewBox="0 0 1072 1024"
  version="1.1"
  xmlns="http://www.w3.org/2000/svg"
  p-id="2803"
  width="200"
  height="200"
><path
    d="M780.190476 292.571429a48.761905 48.761905 0 0 0 97.52381 0V103.960381A97.52381 97.52381 0 0 0 768.195048 7.168l-641.219048 79.481905A146.285714 146.285714 0 0 0 0 231.66781V487.619048a48.761905 48.761905 0 1 0 97.52381 0V231.66781c0-24.429714 18.090667-45.104762 41.886476-48.274286L780.190476 103.911619V292.571429z"
    fill="#333333"
    p-id="2804"
  /><path
    d="M97.52381 682.666667a48.761905 48.761905 0 0 1-97.52381 0V390.095238a146.285714 146.285714 0 0 1 146.285714-146.285714h780.190476a146.285714 146.285714 0 0 1 146.285715 146.285714v487.619048a146.285714 146.285714 0 0 1-146.285715 146.285714H146.285714a146.285714 146.285714 0 0 1-146.285714-146.285714 48.761905 48.761905 0 0 1 97.52381 0 48.761905 48.761905 0 0 0 48.761904 48.761904h780.190476a48.761905 48.761905 0 0 0 48.761905-48.761904V390.095238a48.761905 48.761905 0 0 0-48.761905-48.761905H146.285714a48.761905 48.761905 0 0 0-48.761904 48.761905v292.571429z"
    fill="#333333"
    p-id="2805"
  /><path
    d="M975.238095 536.380952h-195.047619a97.52381 97.52381 0 1 0 0 195.047619h195.047619v-195.047619z m-195.047619-97.523809h243.809524a48.761905 48.761905 0 0 1 48.761905 48.761905v292.571428a48.761905 48.761905 0 0 1-48.761905 48.761905h-243.809524a195.047619 195.047619 0 1 1 0-390.095238z"
    fill="#333333"
    p-id="2806"
  /><path
    d="M828.952381 633.904762m-48.761905 0a48.761905 48.761905 0 1 0 97.52381 0 48.761905 48.761905 0 1 0-97.52381 0Z"
    fill="#333333"
    p-id="2807"
  /></svg>
